<!--?xml version="1.0" encoding="utf-8"?-->
<!-- Generator: Adobe Illustrator 18.1.1, SVG Export Plug-In . SVG Version: 6.00 Build 0)  -->

<svg version="1.1" id="_x32_" xmlns="http://www.w3.org/2000/svg" xmlns:xlink="http://www.w3.org/1999/xlink" x="0px" y="0px" viewBox="0 0 512 512" style="width: 256px; height: 256px; opacity: 1;" xml:space="preserve">
<style type="text/css">
	.st0{fill:#4B4B4B;}
</style>
<g>
	<path class="st0" d="M493.161,291.081c-10.276-21.546-25.771-41.219-46.068-58.446c-11.829-10.04-24.862-18.839-37.468-27.344
		l-0.577-0.388c-22.258-14.936-40.424-27.599-54.678-43.01c-8.184-8.808-14.492-17.787-19.294-27.486
		c-5.36-10.864-8.695-22.343-10.21-35.09c-3.836-32.639-4.642-59.992-4.642-77.191c0-4.784,0.067-8.496,0.123-11.016l0.086-2.822
		L320.822,0H190.837l0.342,7.303c0.01,0.047,0.265,5.294,0.265,14.822c0,17.199-0.815,44.552-4.659,77.219
		c-2.017,16.831-7.019,31.103-15.76,44.932c-5.636,8.866-12.749,17.238-21.708,25.582c-12.606,11.773-27.543,22.126-41.75,31.701
		l-5.199,3.514c-12.721,8.562-25.866,17.426-37.8,27.552c-20.202,17.172-35.622,36.664-45.832,57.974
		c-9.48,19.757-14.292,40.575-14.282,61.886c0.009,25.828,7.169,51.278,20.733,73.592c13.42,22.096,32.344,39.902,54.706,51.505
		c28.754,14.917,59.726,24.654,94.693,29.778c31.483,4.603,61.431,4.622,81.245,4.622L266.295,512
		c23.593-0.019,46.987-0.389,73.725-4.755c30.914-5.029,60.871-14.699,91.577-29.569c22.57-10.93,41.664-28.376,55.2-50.444
		c13.572-22.124,20.741-47.574,20.751-73.592C507.558,332.111,502.718,311.066,493.161,291.081z M177.597,277.149
		c-12.161,27.931-16.47,58.088-16.452,83.291c-0.018,17.626,2.122,32.903,4.708,42.592c0.843,3.211,1.733,5.797,2.443,7.444v0.01
		c3.552,8.287-0.284,17.891-8.582,21.442c-8.296,3.562-17.9-0.284-21.452-8.581c-1.543-3.618-2.84-7.567-4.015-11.981
		c-1.156-4.414-2.178-9.273-3.031-14.567c-1.705-10.579-2.746-22.873-2.756-36.36c0.018-28.812,4.774-63.117,19.17-96.304
		c3.59-8.278,13.212-12.076,21.48-8.476C177.398,259.248,181.196,268.872,177.597,277.149z M332.822,435.415
		c-3.486,8.326-13.051,12.237-21.377,8.761c-8.325-3.486-12.256-13.061-8.761-21.376c10.93-26.141,14.747-45.671,14.737-61.014
		c-0.048-15.192-3.533-26.653-9.045-38.122c-5.494-11.422-13.327-22.627-21.368-35.612c-5.341-8.656-10.711-18.137-15.115-29.001
		c-5.882-14.482-9.87-31.454-9.841-51.438c0-9.017,7.322-16.338,16.338-16.338c9.026,0,16.338,7.322,16.338,16.338
		c0.047,17.73,3.714,31,9.235,43.332c5.522,12.312,13.184,23.611,21.092,36.104c5.257,8.344,10.589,17.228,15.022,27.325
		c5.92,13.439,10.058,29.134,10.02,47.414C350.097,382.622,344.926,406.489,332.822,435.415z" style="fill: rgb(75, 75, 75);"></path>
</g>
</svg>
