<?xml version="1.0" encoding="utf-8"?>
<!-- Generator: Adobe Illustrator 22.0.1, SVG Export Plug-In . SVG Version: 6.00 Build 0)  -->
<svg version="1.1" id="_x32_" xmlns="http://www.w3.org/2000/svg" xmlns:xlink="http://www.w3.org/1999/xlink" x="0px" y="0px"
	 viewBox="0 0 512 512" style="enable-background:new 0 0 512 512;" xml:space="preserve">
<style type="text/css">
	.st0{fill:#A0A0A0;}
</style>
<g>
	<path class="st0" d="M441.6,46.6l12.7-29.8l-19.7-8.4L414.8,0l-12.7,29.8C389,55,335.8,21.4,302.6,66.7
		c-30,40.9-44.3,49.4-44.3,49.4s56.8,19.7,80.5-3.2c0,0-3.2,40.4,23.6,65c36.3,2.2,63.2-28.1,63.2-28.1
		c2.3,38.4,53.6,60.2,53.6,60.2s-5.3-16.4,4.8-66.1C494.8,91.2,431.3,70.8,441.6,46.6z"/>
	<path class="st0" d="M414.7,188.8c-17.4,9.8-35.8,14.4-53.7,13.3c-5.5-0.3-10.8-2.6-14.9-6.4c-15.8-14.5-23.8-32.7-27.7-48.5
		c-19.4,2.7-31.7,2.9-43.9-0.1c-36.2,37.6-112.9,72.7-150,94C12.9,305.3,4.9,413,59.9,469.4C107,517.7,186.6,538,295,458.9
		c87.1-63.6,126.9-184,144.8-241.7C429.7,210.6,424.4,203.1,414.7,188.8z M67.9,411.2C55,293.3,183.2,271.5,183.2,271.5
		S97.6,346.6,67.9,411.2z"/>
</g>
</svg>
