<?xml version="1.0" encoding="utf-8"?>
<!-- Generator: Adobe Illustrator 22.0.1, SVG Export Plug-In . SVG Version: 6.00 Build 0)  -->
<svg version="1.1" id="_x32_" xmlns="http://www.w3.org/2000/svg" xmlns:xlink="http://www.w3.org/1999/xlink" x="0px" y="0px"
	 viewBox="0 0 512 512" style="enable-background:new 0 0 512 512;" xml:space="preserve">
<style type="text/css">
	.st1{opacity:0.68;}
	.st1{fill:#FFFFFF;}
</style>
<g class="st0">
	<path class="st1" d="M455,206.1c-3-6.4-7.6-14.8-13-24.7c-8.1-14.8-18.1-32.6-27.3-49.5c-9.1-16.8-17.4-32.9-21.7-43.2
		c-6.2-14.9-11.8-29.2-16.3-40.1c-2.2-5.5-4.2-10-5.8-13.7c-0.9-1.8-1.6-3.4-2.6-5c-0.5-0.8-1-1.7-1.9-2.8c-0.5-0.6-1-1.2-1.9-2
		s-2.1-1.8-4.4-2.9c-2.3-1-3.9-1.2-5.1-1.3c-2.3-0.2-3.5,0-4.6,0.2c-1.9,0.3-3.3,0.7-4.9,1.2c-2.7,0.8-5.8,1.9-9.4,3.2
		c-10.8,3.9-26.5,10.1-43.8,16.1l0,0C285.4,44,275,47,263.2,50c-17.7,4.5-38.5,9.2-57.3,13.5c-9.4,2.1-18.3,4.2-26.1,6
		c-7.8,1.9-14.5,3.6-19.7,5.1C107.6,90.1,63,125,40.5,175.6c-22.6,50.6-18.8,107.1,4.8,156.5l0,0c15.2,31.9,38.6,61.1,68.7,84.7
		l-23,8.4c-5.9,2.1-8.9,8.6-6.8,14.5s8.6,8.9,14.5,6.8l37.9-13.8c2.5,1.5,5,3,7.5,4.5l-19.8,25c-3.9,4.9-3,12,1.8,15.9
		c4.9,3.9,12,3.1,15.9-1.8l22.5-28.4c1.7,0.8,3.3,1.6,5,2.4s3.4,1.4,5.1,2.1l-6.1,35.7c-1.1,6.1,3.1,12,9.2,13
		c6.1,1.1,12-3.1,13-9.2l5.4-31.5c2.8,0.9,5.6,1.8,8.4,2.6l15.1,37.4c2.3,5.8,8.9,8.6,14.7,6.2c5.8-2.3,8.6-8.9,6.2-14.7l-9.2-22.7
		c37.6,6.6,75,4.5,108.9-5.5c52.5-15.5,97.1-50.3,119.6-101C482.4,312,478.6,255.5,455,206.1z M78.9,332.7l-6.5-13.6
		c-20.3-42.8-23.1-89.5-4.5-131.3c18.6-41.7,55.3-70.9,100.7-84.4c5.7-1.7,15.1-4,26.2-6.6c10.1-2.4,21.7-5,33.6-7.7
		c-0.5,0.2-1.1,0.5-1.5,0.7c-8.4,3.9-15.6,7.3-20.8,10.1c-39.4,21.2-74.1,58.4-95.6,106.7s-26,99-15.5,142.5
		c0.8,3.3,1.9,6.5,2.8,9.7c-10.2-12.5-18.7-25.9-25.3-39.8L78.9,332.7z M140,393.9c-10.7-14-18.5-31-23.2-50
		c-9.3-38-5.5-83.9,14.2-127.9c19.6-44,51.2-77.5,85.7-96c4.3-2.3,11.4-5.7,19.6-9.5c12.4-5.8,27.8-12.7,42.4-19.5
		c9.3-4.4,18.1-8.7,25.9-12.7c-5.2,5.8-10.9,12.1-16.5,18.2c-11.5,12.5-22.5,24.4-28.6,31.6c-23.4,27.5-47.9,67.5-68.9,114.6
		c-21,47-34.4,92.1-39.2,127.8c-1.7,12.8-2.3,24.4-1.6,34.7C146.3,401.6,143,397.9,140,393.9z M223.6,395.6
		c-10.7,12.6-20.8,21.7-28.9,26.5c-2.5,1.5-4.7,2.5-6.6,3.2c-2.2-0.9-4.3-1.8-6.5-2.7c-2.2-1-4.3-2-6.4-3c-1.4-3.5-2.5-8.5-3-14.8
		c-0.7-8.5-0.2-19.2,1.4-31.5c4.4-32.7,17.2-76.3,37.4-121.6c20.2-45.4,44-84,65.5-109.1c5.5-6.4,16.6-18.4,28.1-31
		s23.5-25.8,31.4-35.5c0.1-0.1,0.1-0.1,0.2-0.2c0,0.1,0,0.2,0,0.3c-2,12.3-3.8,30-5.5,47.1c-1.6,16.9-3.1,33.2-4.3,41.6
		c-4.4,32.7-17.2,76.3-37.4,121.6C268.9,331.8,245.1,370.5,223.6,395.6z M230.9,434.5c-5,0.4-9.9,0.4-14.8,0.2
		c8.1-6.4,16.3-14.6,24.7-24.4c23.4-27.5,47.9-67.5,68.9-114.6c21-47,34.4-92.1,39.2-127.8c1.2-9.3,2.7-25.5,4.4-42.4
		c0.8-8.2,1.7-16.6,2.5-24.4c3.3,13,8,28.2,12.6,43.2c3.2,10.3,6.4,20.3,9.1,29.1c2.7,8.7,4.9,16.2,6,21c9.3,38,5.5,83.9-14.2,127.9
		c-19.6,44-51.2,77.5-85.7,96C266.4,427.5,248.4,433,230.9,434.5z M331.7,434.7c-14.7,4.4-30.4,7-46.5,7.8c3-1.4,6.1-2.7,9.1-4.4
		c39.4-21.2,74.1-58.4,95.6-106.7c21.5-48.4,26-99,15.5-142.5c-1.4-5.7-3.7-13.4-6.4-22.3c-0.2-0.6-0.4-1.4-0.6-2
		c2.9,5.3,5.9,10.6,8.7,15.7c9,16.3,17,30.9,20.8,38.7c20.3,42.8,23.1,89.5,4.5,131.3C413.7,392.1,377.1,421.3,331.7,434.7z"/>
</g>
</svg>
