<!--?xml version="1.0" encoding="utf-8"?-->
<!-- Generator: Adobe Illustrator 18.1.1, SVG Export Plug-In . SVG Version: 6.00 Build 0)  -->

<svg version="1.1" id="_x32_" xmlns="http://www.w3.org/2000/svg" xmlns:xlink="http://www.w3.org/1999/xlink" x="0px" y="0px" viewBox="0 0 512 512" style="width: 256px; height: 256px; opacity: 1;" xml:space="preserve">
<style type="text/css">
	.st0{fill:#4B4B4B;}
</style>
<g>
	<path class="st0" d="M430.983,267.007c-9.746-43.275-27.158-92.16-54.07-138.475C349.998,82.251,313.512,38.468,265.477,6.339
		L256.002,0l-9.484,6.339c-32.015,21.408-58.918,48.034-81.252,77.084c-33.505,43.603-56.813,92.652-71.883,138.744
		c-7.534,23.055-13.005,45.372-16.608,65.986c-3.596,20.622-5.34,39.508-5.34,55.896c0,80.876,0,80.876,0,80.876v0.942L80.968,512
		h350.065l1.671-15.184l7.862-70.95v-0.942c0,0,0,0,0-80.876C440.549,322.215,437.47,295.877,430.983,267.007z M386.185,232.765
		c1.72,5.283,3.325,10.524,4.832,15.708c-41.756,8.346-82.55,21.237-120.305,36.683c-21.851-17.707-41.654-32.006-59.074-43.448
		c6.422-9.337,14.178-18.493,22.908-27.256c17.33-17.404,38.501-33.235,60.392-46.216c17.15-10.172,34.742-18.558,51.204-24.709
		C363.335,172.709,376.586,203.372,386.185,232.765z M256.002,41.367c24.414,17.838,45.576,39.304,63.676,62.858
		c4.504,5.856,8.804,11.858,12.932,17.935c-20.72,8.149-42.35,19.222-63.021,32.645c-5.97-6.536-12.612-12.752-19.517-18.648
		c-16.388-13.972-34.307-26.068-48.205-34.766c-1.704-1.074-3.341-2.081-4.922-3.047C213.996,77.108,233.635,57.706,256.002,41.367z
		 M164.587,145.682c5.405-9.304,11.236-18.435,17.444-27.354c6.232,3.759,13.808,8.517,21.916,14.029
		c9.968,6.79,20.696,14.685,30.492,23.08c5.233,4.48,10.172,9.107,14.602,13.734c-22.809,17.215-43.374,37.206-58.435,59.36
		c-24.398-14.52-42.563-22.636-53.398-26.846C144.832,182.905,153.923,164.012,164.587,145.682z M105.553,344.05
		c-0.008-18.607,2.727-42.825,8.747-69.557c3.546-15.815,8.263-32.522,14.176-49.582c17.297,6.756,58.132,25.684,116.428,71.399
		c-17.592,8.027-34.373,16.52-50.048,25.291c-28.534,15.97-53.472,32.792-73.439,49.262c-5.725,4.726-10.983,9.41-15.864,14.062
		C105.553,374.344,105.553,360.987,105.553,344.05z M400.467,477.88H111.524l-5.012-45.249H405.48L400.467,477.88z M406.446,407.816
		H117.642c10.852-11.064,25.307-23.128,42.554-35.282c28.845-20.336,65.47-40.965,106.305-58.697
		c0.336,0.278,0.655,0.54,0.983,0.818l1.63-1.94c39.861-17.117,83.644-31.392,128.127-40.171c1.704,7.371,3.145,14.545,4.357,21.482
		c3.325,18.943,4.848,36.076,4.848,50.024C406.446,376.744,406.446,396.212,406.446,407.816z" style="fill: rgb(75, 75, 75);"></path>
</g>
</svg>
