<svg xmlns="http://www.w3.org/2000/svg" viewBox="0 0 263.34 196.64"><defs><style>.cls-1{fill:#fff;}</style></defs><title>アセット 1</title><g id="レイヤー_2" data-name="レイヤー 2"><g id="レイヤー_1-2" data-name="レイヤー 1"><path class="cls-1" d="M49,99.66a66.41,66.41,0,0,1,132.82,0h56.25a99.66,99.66,0,0,0-199.32,0Z"/><path class="cls-1" d="M115.42,38.25A61.48,61.48,0,0,0,54,99.66h9a34.45,34.45,0,0,1,68.9,0h45A61.48,61.48,0,0,0,115.42,38.25Z"/><path class="cls-1" d="M97.42,70.21A29.48,29.48,0,0,0,68,99.66h58.9A29.48,29.48,0,0,0,97.42,70.21Z"/><path class="cls-1" d="M0,115.22H10l12,36.58,12.17-36.58h10L27,163.39H17.19Z"/><path class="cls-1" d="M46.47,163.39H35.93l19.53-48.17H64l19.08,48.17H72.45L68.93,154h-19ZM59.3,126.67,52.46,146.2H66.33Z"/><path class="cls-1" d="M130.63,147.24c-2.92,10-12.3,17.06-23.56,17.06a25,25,0,1,1-.06-50,24.52,24.52,0,0,1,23.62,17.31H120.41a15,15,0,0,0-13.47-8.79c-9.37,0-15.43,7.88-15.43,16.41,0,8.78,6.32,16.53,15.5,16.53,8.59,0,12.49-6.77,13.4-8.53Z"/><path class="cls-1" d="M141.17,163.39H130.63l19.53-48.17h8.52l19.08,48.17H167.15L163.63,154h-19ZM154,126.67l-6.84,19.53H161Z"/><path class="cls-1" d="M169.42,115.22h10l12.05,36.58,12.17-36.58h10l-17.25,48.17H186.6Z"/><path class="cls-1" d="M212.77,139.69c0-15.42,11.84-25.38,25.25-25.38a24.86,24.86,0,0,1,25.32,25c0,13.67-10.67,25-25.38,25a24.74,24.74,0,0,1-25.19-24.54Zm9.7-.39c0,8.79,6.31,16.47,15.68,16.47,9.77,0,15.5-8.46,15.5-16.4s-5.73-16.54-15.56-16.54c-9.63,0-15.62,7.94-15.62,16.41Z"/><path class="cls-1" d="M41.29,192.28H38.38L43.78,179h2.36l5.27,13.32H48.48l-1-2.61H42.25Zm3.55-10.15L43,187.53h3.84Z"/><path class="cls-1" d="M62.48,192.28H60.23v-1.42a3.6,3.6,0,0,1-3.38,1.73,5.26,5.26,0,0,1,0-10.5,3.84,3.84,0,0,1,3.31,1.59V179h2.36Zm-8.28-4.95a2.94,2.94,0,0,0,3,3,3.06,3.06,0,0,0,2.19-.9,3.13,3.13,0,0,0,0-4.32,3,3,0,0,0-2.15-.86,3,3,0,0,0-3,3Z"/><path class="cls-1" d="M70.26,192.28H68l-3.67-9.88h2.45l2.38,6.91,2.37-6.91h2.45Z"/><path class="cls-1" d="M76.74,188.12a2.7,2.7,0,0,0,2.86,2.45A2.55,2.55,0,0,0,82,189.24h2.43a5.51,5.51,0,0,1-2,2.48,4.88,4.88,0,0,1-2.83.87,5.25,5.25,0,0,1,0-10.5,5.08,5.08,0,0,1,3.7,1.51,5.39,5.39,0,0,1,1.46,4.52Zm5.63-1.8a2.72,2.72,0,0,0-2.81-2.23,2.68,2.68,0,0,0-2.79,2.23Z"/><path class="cls-1" d="M86.65,182.4h2.24v1.29a2.82,2.82,0,0,1,2.73-1.6v2.38h-.1A2.19,2.19,0,0,0,89,187v5.33H86.65Z"/><path class="cls-1" d="M95.2,184.22H93.57V182.4H95.2V179h2.36v3.44h1.69v1.82H97.56v8.06H95.2Z"/><path class="cls-1" d="M101,179h2.36v2.1H101Zm0,3.44h2.36v9.88H101Z"/><path class="cls-1" d="M110.13,185.06a1.2,1.2,0,0,0-2.38-.07c0,.63.74,1,1.67,1.24,1.59.43,3.3.9,3.32,3s-1.68,3.33-3.75,3.33a3.51,3.51,0,0,1-3.78-3.19h2.36a1.38,1.38,0,0,0,1.46,1.28,1.24,1.24,0,0,0,1.35-1.15c0-.85-.74-1.08-2.56-1.71-1.33-.42-2.41-1.16-2.43-2.58a3.27,3.27,0,0,1,3.55-3.15,3.23,3.23,0,0,1,3.51,3Z"/><path class="cls-1" d="M114.68,179H117v2.1h-2.36Zm0,3.44H117v9.88h-2.36Z"/><path class="cls-1" d="M119.36,182.4h2.21c0,.43,0,.84,0,1.31a3.21,3.21,0,0,1,3.07-1.62c3.23,0,3.84,2.49,3.84,4.23v6h-2.36v-5.36c0-1.48-.49-2.61-2.14-2.61s-2.25,1.13-2.25,2.52v5.45h-2.36Z"/><path class="cls-1" d="M141.05,191.11a5.47,5.47,0,0,1-.92,3.49,5.63,5.63,0,0,1-4.53,2c-3.08,0-4.56-1.84-4.92-3.37h2.74a2.22,2.22,0,0,0,1,1,2.87,2.87,0,0,0,4.23-2.63v-.83a3.5,3.5,0,0,1-3.2,1.77,5.24,5.24,0,0,1,0-10.48,3.63,3.63,0,0,1,3.2,1.62V182.4h2.38Zm-8.26-3.78a2.92,2.92,0,0,0,3,3,2.84,2.84,0,0,0,2.11-.84,3,3,0,0,0,.84-2.11,3.28,3.28,0,0,0-.72-2.12,2.69,2.69,0,0,0-2.23-1,2.93,2.93,0,0,0-3,3Z"/><path class="cls-1" d="M162,187.82a6.69,6.69,0,0,1-6.52,4.71,6.91,6.91,0,1,1,0-13.82A6.78,6.78,0,0,1,162,183.5h-2.83a4.14,4.14,0,0,0-3.72-2.44,4.35,4.35,0,0,0-4.27,4.54,4.39,4.39,0,0,0,4.28,4.58,4.21,4.21,0,0,0,3.71-2.36Z"/><path class="cls-1" d="M163.53,187.31a5.3,5.3,0,1,1,5.29,5.26,5.13,5.13,0,0,1-5.29-5.26Zm2.36,0a2.93,2.93,0,1,0,2.93-3,2.93,2.93,0,0,0-2.93,3Z"/><path class="cls-1" d="M175.93,182.4h2.22v1.24a3.44,3.44,0,0,1,5.31-.54,4.49,4.49,0,0,1,.59.9,4.21,4.21,0,0,1,.72-.94,3.87,3.87,0,0,1,5.15,0c.9.94,1.08,1.75,1.08,3.78v5.42h-2.36V187a3.35,3.35,0,0,0-.39-1.83,1.56,1.56,0,0,0-1.55-.81,1.84,1.84,0,0,0-1.71.9,3.07,3.07,0,0,0-.34,1.65v5.42h-2.36v-5.42a3.6,3.6,0,0,0-.31-1.63,1.71,1.71,0,0,0-1.62-.92,1.83,1.83,0,0,0-1.69.92,3.51,3.51,0,0,0-.38,1.71v5.34h-2.36Z"/><path class="cls-1" d="M193.28,182.4h2.22v1.44a4.11,4.11,0,0,1,3.49-1.75c3.46,0,4.92,2.94,4.92,5.33a5,5,0,0,1-4.9,5.17,3.85,3.85,0,0,1-3.37-1.62v4.77h-2.36Zm8.27,4.93a3,3,0,0,0-3-3,2.92,2.92,0,0,0-2.14.9,3.13,3.13,0,0,0-.85,2.18,3,3,0,0,0,3,3,3,3,0,0,0,3-3Z"/><path class="cls-1" d="M216.29,192.28h-2.36v-1.42a3.68,3.68,0,0,1-3.33,1.73,5.26,5.26,0,0,1,0-10.5,3.69,3.69,0,0,1,3.33,1.75V182.4h2.36Zm-8.35-4.89a3,3,0,0,0,3,3,2.79,2.79,0,0,0,2.63-1.58,3.51,3.51,0,0,0,.38-1.39,3.06,3.06,0,0,0-.27-1.39,2.91,2.91,0,0,0-2.76-1.74,3,3,0,0,0-3,3.08Z"/><path class="cls-1" d="M218.63,182.4h2.21c0,.43,0,.84,0,1.31a3.24,3.24,0,0,1,3.08-1.62c3.22,0,3.84,2.49,3.84,4.23v6h-2.36v-5.36c0-1.48-.49-2.61-2.14-2.61s-2.25,1.13-2.25,2.52v5.45h-2.36Z"/><path class="cls-1" d="M232.49,191.9l-3.73-9.5h2.52l2.41,6.57,2.38-6.57h2.52l-5.2,13.34h-2.52Z"/></g></g></svg>