<svg xmlns="http://www.w3.org/2000/svg" viewBox="0 0 329.44 70"><defs><style>.cls-1{fill:#fff;}</style></defs><title>アセット 2</title><g id="レイヤー_2" data-name="レイヤー 2"><g id="レイヤー_1-2" data-name="レイヤー 1"><path class="cls-1" d="M3.38,7.36A5.46,5.46,0,0,1,5.21,5.43,17.18,17.18,0,0,1,8.35,3.62a24.44,24.44,0,0,1,3.81-1.39A16.42,16.42,0,0,1,16,1.59a3.67,3.67,0,0,1,1.18.21A3.32,3.32,0,0,0,18.32,2a6.38,6.38,0,0,0,1.15-.1,5.57,5.57,0,0,1,1-.11,8.69,8.69,0,0,1,4.6,1.78,10,10,0,0,1,2.74,3.14,6.84,6.84,0,0,1,.79,3.38,10.36,10.36,0,0,1-.68,3.25,13.57,13.57,0,0,1-1.6,3,26.53,26.53,0,0,1-2.07,2.53,6.46,6.46,0,0,1-1.64.82,9.88,9.88,0,0,1-2.14.54,2,2,0,0,1-1.28.25c-.38-.07-.47.06-.28.39,0,.1.08.15.24.18a.67.67,0,0,1,.4.18c.71.14,1.42.26,2.13.35a17.16,17.16,0,0,1,2.11.43,10.37,10.37,0,0,1,2,.78,8.39,8.39,0,0,1,1.82,1.43A12.57,12.57,0,0,1,29.75,27a5.79,5.79,0,0,1,.78,2.78,9.82,9.82,0,0,1-.28,4.31,12.26,12.26,0,0,1-1.85,4,9.67,9.67,0,0,1-3.71,2.71c-1.47.61-2.83,1.23-4.06,1.85a11.78,11.78,0,0,1-3.14.85,23.52,23.52,0,0,1-3.24.22,20.54,20.54,0,0,1-3-.14,22.39,22.39,0,0,0-2.31-.15,9.51,9.51,0,0,1-3-.42l-2.35-.79a4.38,4.38,0,0,1-1.14-.53,6.69,6.69,0,0,1-1.17-.89,4.57,4.57,0,0,1-.89-1.07A2,2,0,0,1,0,38.62c-.1-.38.07-.64.5-.79a2.2,2.2,0,0,0,1.07-.78,8.24,8.24,0,0,1,.64-1.21A3.86,3.86,0,0,1,3,34.91a1.38,1.38,0,0,1,.89-.35,1.19,1.19,0,0,1,.89.49,12.29,12.29,0,0,0,2.14,2,18,18,0,0,0,3.6,2.17,12.26,12.26,0,0,0,4.17,1.1A5.26,5.26,0,0,0,18.63,39a21,21,0,0,0,1.85-2.14A4.57,4.57,0,0,0,21.41,34,10.76,10.76,0,0,0,21,31.09a12,12,0,0,0-1.21-2.81A9.73,9.73,0,0,0,17.85,26a6.91,6.91,0,0,0-2.57-1.42,7.92,7.92,0,0,0-1.6-.72c-.69-.23-1.54-.47-2.53-.71a2.8,2.8,0,0,0-1,0l-.85.18a1.38,1.38,0,0,1-.75-.08,1.57,1.57,0,0,1-.71-.71,8.29,8.29,0,0,1-.43-1,5,5,0,0,1-.29-1,1.89,1.89,0,0,1,0-.82.57.57,0,0,1,.46-.43A6.89,6.89,0,0,1,10,18.9a20.15,20.15,0,0,0,3.1-.25,10.75,10.75,0,0,0,3.17-1A7.21,7.21,0,0,0,19.06,15a2.36,2.36,0,0,0,.68-1.36,15.17,15.17,0,0,0,.1-1.78c-.09-.43-.24-.93-.42-1.5a8,8,0,0,0-.79-1.64,4,4,0,0,0-1.17-1.21,2,2,0,0,0-1.54-.21H14.71a8.53,8.53,0,0,1-1.21-.17,5.86,5.86,0,0,0-1.39.14,11.17,11.17,0,0,0-1.39.43,3.67,3.67,0,0,0-.5.6l-1,1.21a16.46,16.46,0,0,1-1.28,1.36,6.94,6.94,0,0,1-1.35,1,2.24,2.24,0,0,1-2-.11c-.65-.35-1-1.17-1-2.46a1.1,1.1,0,0,0,0-.57,2.65,2.65,0,0,0-.18-.42,2.16,2.16,0,0,1-.14-.43A1.12,1.12,0,0,1,3.38,7.36Z"/><path class="cls-1" d="M58.69.23A1.62,1.62,0,0,1,59.86,1a5.25,5.25,0,0,1,1,4.09,3.74,3.74,0,0,1-1.14,2,1.46,1.46,0,0,1-.89.17l-1.11-.07a10.09,10.09,0,0,0-1.1,0,1.61,1.61,0,0,0-.9.32,6.32,6.32,0,0,1-1.51.65c-.62.19-1.26.42-1.93.68s-1.33.56-2,.89a5.26,5.26,0,0,0-1.71,1.36.28.28,0,0,0-.11.28,1,1,0,0,1-.11.5,1.82,1.82,0,0,0-.46.11c-.21.07-.32.15-.32.25a7.94,7.94,0,0,0-1.93,2.56,18.33,18.33,0,0,1-1.21,2.43q-.78,1.85-1.17,3c-.26.77-.44,1.35-.54,1.78a5.32,5.32,0,0,0-.14.89c0,.17,0,.25.07.25a.31.31,0,0,0,.43-.08l0-.06a2.67,2.67,0,0,1,.32-.43,9.37,9.37,0,0,1,.68-.85,3.75,3.75,0,0,1,.71-.61c.27-.17.56-.33.9-.5s.76-.37,1.28-.6a9.24,9.24,0,0,1,2-1.32A12.21,12.21,0,0,1,52,18a3.12,3.12,0,0,1,2.17-.11c.88.22,1.65.37,2.32.47a11.1,11.1,0,0,1,1.82.17,10.34,10.34,0,0,1,1.88.54,12.66,12.66,0,0,1,1.75.82A4.51,4.51,0,0,1,63.26,21a8.16,8.16,0,0,1,.85,1,7.68,7.68,0,0,1,.72,1.6c.23.52.46,1,.67,1.46a3,3,0,0,1,.33,1.32,8.13,8.13,0,0,1-.15,3.67c-.33,1.16-.62,2.24-.85,3.24a19.61,19.61,0,0,0-.47,2.28,5.53,5.53,0,0,1-.39,1.5A5.24,5.24,0,0,1,63,38.44a13.47,13.47,0,0,1-2.13,1.79,7.78,7.78,0,0,0-.93.42l-1.5.75L57,42.11a2.9,2.9,0,0,1-.89.33L55,42.68c-.55.12-1.12.25-1.71.4s-1.17.26-1.72.35a7.8,7.8,0,0,1-1.17.15,49.62,49.62,0,0,1-5.45-.29,11.44,11.44,0,0,1-4.81-1.64,9.39,9.39,0,0,1-3.67-4.24,20.51,20.51,0,0,1-1.68-5.88c0-.71,0-1.63-.07-2.74a11.64,11.64,0,0,1,.21-3,28.61,28.61,0,0,1,3-9.09,24.21,24.21,0,0,1,6-7.31,29.93,29.93,0,0,1,2.6-2.56l2.75-2.42a24.57,24.57,0,0,1,4.35-2.68A15.39,15.39,0,0,1,58.69.23ZM43.21,29.31a11.74,11.74,0,0,0,.11,1.78,12.78,12.78,0,0,1,.1,1.64,2.21,2.21,0,0,0,.33,1.32,10,10,0,0,1,.67,1.25c.29.38.55.74.79,1.07L46,37.44a15.49,15.49,0,0,0,2.28,1.46,7,7,0,0,0,6.56-.64,5.69,5.69,0,0,0,2.28-3,19.84,19.84,0,0,0,.57-2.14,6.37,6.37,0,0,0,0-1.85A26.49,26.49,0,0,0,57,28.34a5.38,5.38,0,0,0-1.32-2.21c-.57-.52-1.08-1-1.53-1.46a5,5,0,0,0-3.31-1.49H49.2a4.16,4.16,0,0,0-2.1.54,6.35,6.35,0,0,0-1.75,1.42,10.08,10.08,0,0,0-1.36,2A7.93,7.93,0,0,0,43.21,29.31Z"/><path class="cls-1" d="M76.51,2.58a7.32,7.32,0,0,0,1.67.5,8.58,8.58,0,0,0,1.6.15H83.2c2,.1,3.71.16,5.14.18a10.73,10.73,0,0,0,3.77-.53,3.41,3.41,0,0,0,1.64-1.07A6.8,6.8,0,0,1,95.32.45a3.06,3.06,0,0,1,.89-.27A3.43,3.43,0,0,0,97.1,0a2.11,2.11,0,0,1,.5.1,2.17,2.17,0,0,0,.72.11c.33.05.45.3.35.75a7.84,7.84,0,0,1-.53,1.57c-.27.59-.55,1.16-.86,1.71s-.51.91-.6,1.1a3.83,3.83,0,0,0-.57,1.29c-.15.52-.28,1.07-.4,1.64s-.25,1.11-.39,1.63a3.25,3.25,0,0,1-.57,1.22,2.45,2.45,0,0,1-1.14.35,3.36,3.36,0,0,1-1-.14,6,6,0,0,1-1-.36,4.33,4.33,0,0,0-1.07-.28,4.28,4.28,0,0,0-1.64-.39A16.5,16.5,0,0,1,87,10.12H85.9a1.87,1.87,0,0,1-1.06-.25,3.52,3.52,0,0,0-1.79-.17,6.06,6.06,0,0,1-1.64.17h-.92a1.09,1.09,0,0,0-.36,0L80,9.94a.49.49,0,0,1-.18.11c-.09,0-.13.18-.1.53a18.91,18.91,0,0,1-.25,2.6,2.59,2.59,0,0,1,.11,1,7.15,7.15,0,0,1-.15,1.21c-.07.4-.13.81-.18,1.21a3.35,3.35,0,0,0,0,1q.23.64.75.57a5,5,0,0,0,1.25-.35l1.57-.65a4.71,4.71,0,0,1,1.78-.35,13.78,13.78,0,0,1,3,.39c1.12.26,2.22.53,3.31.82a12.31,12.31,0,0,1,3.57,2,11.09,11.09,0,0,1,2.31,2.57,10.59,10.59,0,0,1,1.32,2.88,13.1,13.1,0,0,1,.5,2.85v2.5c0,.67-.09,1.34-.18,2a9.74,9.74,0,0,1-1.36,3.64,20.2,20.2,0,0,1-3.7,4.13,15.21,15.21,0,0,1-3.67,2.25,13.57,13.57,0,0,1-3.64,1,32.25,32.25,0,0,1-3.67.21c-.33,0-1.21-.09-2.64-.28s-3-.45-4.59-.79-3.14-.7-4.49-1.1-2.13-.8-2.32-1.18a2.69,2.69,0,0,1-.21-1.89,9.42,9.42,0,0,0,.21-1.67,5.79,5.79,0,0,1,2-2.21,4.55,4.55,0,0,0,.74-1c.22-.38.42-.57.61-.57a1.8,1.8,0,0,1,.68.14l.89.43a9,9,0,0,1,.68.82c.26.36.53.71.81,1.07a14.39,14.39,0,0,0,1,1.07,4.21,4.21,0,0,0,1.1.82,6.24,6.24,0,0,1,1.21.61l.93.6a6.53,6.53,0,0,0,.85.5,3.12,3.12,0,0,0,1,.29,13.28,13.28,0,0,0,1.68.17h1.67a2.32,2.32,0,0,0,1.57-.43l1.42-1.28A23.52,23.52,0,0,0,89,35.9a5.92,5.92,0,0,0,1-4.28c-.1-.8-.26-1.78-.5-2.92a3.33,3.33,0,0,1-.46-1.5,2.08,2.08,0,0,0-.54-1.28,16.7,16.7,0,0,1-1.46-1.25,6.68,6.68,0,0,0-1.68-1.1,7.93,7.93,0,0,0-1.17-1A7.12,7.12,0,0,0,82.6,22,3.92,3.92,0,0,0,81,22c-.64.14-1.31.32-2,.54l-2.07.67a11.45,11.45,0,0,1-1.89.5,1.16,1.16,0,0,1-.86,0,2,2,0,0,1-.71-.32.89.89,0,0,1-.07-.68,11.67,11.67,0,0,0,.07-1.32c.14-.52.29-1.14.43-1.85s.26-1.4.36-2.07.17-1.29.25-1.89.13-1,.17-1.32c0-.57-.12-1.3-.21-2.21s-.17-1.86-.21-2.88-.06-2,0-3a13.16,13.16,0,0,1,.25-2.42.83.83,0,0,1,.71-.93C75.7,2.77,76.12,2.68,76.51,2.58Z"/><path class="cls-1" d="M131.49,17.24a2,2,0,0,1,1.92.81,3.43,3.43,0,0,1,.47,1.71.79.79,0,0,1-.19.39,5.68,5.68,0,0,1-.47.51c-.18.16-.37.31-.56.45a.86.86,0,0,1-.45.19h-.72a2.26,2.26,0,0,0-.52,0,1.44,1.44,0,0,0-.77.3,1.48,1.48,0,0,0-1,.28,1.75,1.75,0,0,0-.49.71,2.54,2.54,0,0,0-.19.94v6.88a1.66,1.66,0,0,0,.13.73c.09.17.16.33.22.47a.89.89,0,0,1,.23.51,5.23,5.23,0,0,1,0,.56l-.09,1.5a3.92,3.92,0,0,0,.17,1.18,4,4,0,0,1,.17.83l.51,1.2v1.19a1.06,1.06,0,0,0,.75,1.07,9.79,9.79,0,0,0,1.62.49c.59.13,1.13.28,1.63.43a.9.9,0,0,1,.75.88c0,.85-.4,1.28-1.2,1.28h-2.18a1.67,1.67,0,0,0-.69.24L127,42.71h-2.6l-1,.09-1,.09h-.6a3.55,3.55,0,0,1-.92-.09c-.19,0-.28-.27-.28-.64a3.12,3.12,0,0,1,.32-1.3,1.21,1.21,0,0,1,1.22-.71h2.48a.65.65,0,0,0,.49-.19,1,1,0,0,0,.26-.47,3.43,3.43,0,0,0,.08-.56,3.38,3.38,0,0,0,0-.45,4.81,4.81,0,0,0-.24-1.3,4.35,4.35,0,0,1-.23-1.07v-4a5.73,5.73,0,0,0-.07-.58,7.91,7.91,0,0,0-.19-.81,6.15,6.15,0,0,0-.28-.71c-.1-.2-.21-.3-.32-.3s-.18.13-.36.37-.4.55-.65.94l-.81,1.28c-.3.47-.58.94-.85,1.39s-.52.87-.75,1.24-.4.66-.51.86a2,2,0,0,0-.58.68,7,7,0,0,0-.41.88,7.91,7.91,0,0,0-.3.9,6.44,6.44,0,0,1-.25.74c-.21.36-.43.71-.67,1l-.53.75a3.56,3.56,0,0,1-.47.83.72.72,0,0,1-.47.11.64.64,0,0,1-.66-.34,8.72,8.72,0,0,0-.54-1L115,37.78c-.2-.52-.43-1-.69-1.59s-.49-1.09-.7-1.64-.39-1.11-.54-1.65a5.72,5.72,0,0,1-.21-1.54v-.47a2.32,2.32,0,0,0-.13-.58,5.6,5.6,0,0,0-.3-.81,3.64,3.64,0,0,0-.38-.7c-.15-.2-.27-.3-.39-.3s-.2.13-.34.38a6,6,0,0,0-.4.9,9.15,9.15,0,0,0-.33,1,3.51,3.51,0,0,0-.12.79v2.95c-.12.74-.23,1.41-.35,2s-.16,1-.23,1.5-.11.78-.11.89a2.26,2.26,0,0,0,.43,1.63,2.06,2.06,0,0,0,.94.56c.34.08.66.17.94.25s.43.34.43.77a1.19,1.19,0,0,1-.19.71,1.25,1.25,0,0,1-.45.34,1.89,1.89,0,0,1-.52.13h-2l-4.07-.67h-1.54a1.14,1.14,0,0,1-.3.13,1.24,1.24,0,0,1-.56.13h-1.19a2.38,2.38,0,0,1-.52-.15,3.21,3.21,0,0,1-.45-.24.35.35,0,0,1-.19-.3,1.07,1.07,0,0,1,.32-.75,3,3,0,0,1,.73-.53,3.58,3.58,0,0,1,.79-.3,4.17,4.17,0,0,1,.51-.09h.86a4.34,4.34,0,0,0,.51,0,4,4,0,0,0,.81-.13l1.07-.17a3.17,3.17,0,0,0,.6-1,13.88,13.88,0,0,0,.51-1.54c.15-.52.27-1,.37-1.45a5.77,5.77,0,0,0,.15-.83v-2a1.07,1.07,0,0,0,.21-.41,3.75,3.75,0,0,0,.13-.58c0-.23,0-.45,0-.68V29.86a4,4,0,0,1,.18-.68,2.77,2.77,0,0,1,.15-.68c.06-.23.17-.53.25-.82V26.49l.18-.52a3.59,3.59,0,0,0,.12-.47,5,5,0,0,0,0-.55V24a3.75,3.75,0,0,0-.13-.58c-.09-.3-.19-.61-.3-.92s-.24-.78-.39-1.24a2.29,2.29,0,0,0-.6-.56c-.25-.17-.5-.34-.72-.51a4.16,4.16,0,0,0-.62-.41,1.28,1.28,0,0,1-.58-.57v-.47a.42.42,0,0,1,.21-.39,2.36,2.36,0,0,1,.52-.21,2.25,2.25,0,0,1,.73-.09h1.06a2.18,2.18,0,0,0,.62-.06.62.62,0,0,0,.28-.17l.13-.17a.18.18,0,0,1,.17-.07h2.82l1.2.47c.29.74.59,1.65.92,2.72s.66,2.2,1,3.4.68,2.39,1,3.57.64,2.24.94,3.19.56,1.7.79,2.28.41.88.56.88a1.47,1.47,0,0,1,.21-.39,2.25,2.25,0,0,1,.24-.36c.1-.13.19-.23.27-.32A33.58,33.58,0,0,1,121,28.5c.72-1.57,1.36-3.07,1.94-4.49a2.39,2.39,0,0,1,.54-1.56c.35-.45.73-1,1.13-1.57a2.38,2.38,0,0,0,.17-.79,8.31,8.31,0,0,1,.15-1,3,3,0,0,1,.36-.92,1.47,1.47,0,0,1,.86-.6h1.67l.6.34a6,6,0,0,0,1.11-.1c.34-.07.67-.15,1-.24A8.69,8.69,0,0,0,131.49,17.24Z"/><path class="cls-1" d="M148.72,21.51A1.5,1.5,0,0,1,150,22a2.27,2.27,0,0,1,.39,1.41,6.54,6.54,0,0,1-.13.75c-.09.38-.19.81-.32,1.28s-.27,1-.41,1.43-.26.87-.34,1.16a2.05,2.05,0,0,0,0,.7,3.5,3.5,0,0,1-.3,1,1,1,0,0,0-.35.84v.83l-.12,2.27v2.12a4.66,4.66,0,0,0,.08.64,1.36,1.36,0,0,0,.24.55.52.52,0,0,0,.47.24l.6-.94c.17-.15.37-.32.6-.54l.68-.62c.26-.23.51-.47.77-.72a.55.55,0,0,1,.43.21.73.73,0,0,1,.17.47l-.17.34A2.59,2.59,0,0,1,152,36a5.43,5.43,0,0,1-.77,1.47c-.32.41-.66.81-1,1.2l-1.13,1.17a9.31,9.31,0,0,0-1.14,1.37L147,42.51a1.59,1.59,0,0,1-.24.79,2,2,0,0,1-.56.64,1,1,0,0,1-.68.21.69.69,0,0,1-.58-.49,4.61,4.61,0,0,1-.25-1.52,8.78,8.78,0,0,1,.12-1.45c.09-.47.18-.92.26-1.35a6.44,6.44,0,0,0,.13-1.24V35.71q0-.21-.3-.3h-.3c-.08,0-.3.25-.64.74l-1.18,1.72-1.34,1.94a10.83,10.83,0,0,1-1.12,1.41c-.08.12-.22.28-.4.49s-.39.42-.6.62a4.59,4.59,0,0,1-.71.54,1.26,1.26,0,0,1-1.67-.19,3,3,0,0,1-.59-1,5.78,5.78,0,0,1-.32-1.15,4.83,4.83,0,0,1-.11-.84l-.13-3.08.6-5a2.58,2.58,0,0,1,.13-.6,9.06,9.06,0,0,1,.34-1,11.91,11.91,0,0,1,.49-1.1,4.55,4.55,0,0,1,.58-.87,17.92,17.92,0,0,0,2.39-2.82,4.55,4.55,0,0,1,1.07-1.12,5.31,5.31,0,0,1,1-.53,5.76,5.76,0,0,1,1-.3,4.37,4.37,0,0,0,1.15-.45,1.26,1.26,0,0,0,.66-.28c.27-.18.52-.36.75-.53h1.93Zm-5.51,4.75a10.67,10.67,0,0,0-1.45,1.48,14.23,14.23,0,0,0-1.2,1.68,12.12,12.12,0,0,0-.81,1.61,3.42,3.42,0,0,0-.3,1.18V33a4.74,4.74,0,0,0,0,1.19,4,4,0,0,0,.32,1.12.86.86,0,0,0,.84.49c.37,0,.8-.33,1.3-1a16,16,0,0,0,1.41-2.22q.66-1.24,1.11-2.31a5.9,5.9,0,0,0,.45-1.28,7.11,7.11,0,0,1,.05-.84,6.08,6.08,0,0,0-.07-1.28,1.42,1.42,0,0,0-.47-.9C144.21,25.8,143.79,25.89,143.21,26.26Z"/><path class="cls-1" d="M159.58,21.64c.31,0,.52,0,.62.13a1.88,1.88,0,0,0,.71.47,3.41,3.41,0,0,1,.81.6,1.11,1.11,0,0,1,.34.81,3,3,0,0,1-.09.47,2.43,2.43,0,0,0,.09,1.07,3.61,3.61,0,0,1-.15.92,1.65,1.65,0,0,0-.06.88,1.2,1.2,0,0,0,.25.34,1.56,1.56,0,0,0,.28.23.24.24,0,0,0,.28,0,1.75,1.75,0,0,0,.92-.82,16.78,16.78,0,0,0,1-1.62c.31-.6.63-1.18.94-1.75a3.77,3.77,0,0,1,.86-1.16l1.32-.34a1.14,1.14,0,0,1,.58,0h.49a2.15,2.15,0,0,1,1,1.3c.14.56.24,1,.3,1.31a3.5,3.5,0,0,1-.41,1.58,5.09,5.09,0,0,1-1.13,1.62A4.18,4.18,0,0,1,168,28a5.27,5.27,0,0,1-.51.19,1.71,1.71,0,0,1-.32,0,1.33,1.33,0,0,1-.28-.1,1.19,1.19,0,0,0-.41-.11H166a1.55,1.55,0,0,0-1,.43c-.33.28-.65.58-1,.89a6.74,6.74,0,0,0-1.14,2,6.12,6.12,0,0,0-.4,2.11c-.2.2-.44.45-.71.75a3.05,3.05,0,0,0-.62,1,2.92,2.92,0,0,0-.24,1.24,2.77,2.77,0,0,1-.23,1.24,7.62,7.62,0,0,1,0,1.17,9.82,9.82,0,0,1-.15,1.39,13.15,13.15,0,0,1-.28,1.39,9.55,9.55,0,0,1-.38,1.18,5.12,5.12,0,0,1-.73.39,5.44,5.44,0,0,1-.9.25,6.09,6.09,0,0,1-1.11.17.92.92,0,0,1-.56-.34c-.11-.11-.21-.23-.3-.34l-.59-1.2a3.72,3.72,0,0,1,.08-1c.09-.49.19-1,.3-1.48s.22-1,.32-1.35c.06-.22.11-.45.15-.68a8.16,8.16,0,0,0,1.24-3c.2-1,.41-2.08.64-3.1l-.34-2.83c-.14-.37-.32-.55-.53-.55a3,3,0,0,0-.67.08,2.38,2.38,0,0,0-1,.37,3,3,0,0,0-.51.49c-.15.17-.3.33-.47.49a1.72,1.72,0,0,1-.9.32c-.23,0-.37-.14-.43-.43s-.11-.54-.17-.77a1,1,0,0,1,.13-.75,2.52,2.52,0,0,1,.58-.68,8.71,8.71,0,0,1,.83-.64,8.93,8.93,0,0,0,.86-.66,6.69,6.69,0,0,0,.89-1.22c.26-.44.52-.86.77-1.24a4.42,4.42,0,0,1,.88-1A2.34,2.34,0,0,1,159.58,21.64Z"/><path class="cls-1" d="M183.27,3.94a4.94,4.94,0,0,1,1.26.25,3.81,3.81,0,0,1,1.09.58,2.12,2.12,0,0,1,.69.9,2.11,2.11,0,0,1,0,1.22,3.38,3.38,0,0,1,0,.45,2.3,2.3,0,0,1-.11.4,2.33,2.33,0,0,1-.13.52,7.68,7.68,0,0,1-.32.79,7.43,7.43,0,0,1-.4.73c-.15.21-.26.32-.35.32a7.07,7.07,0,0,1-1.73.94c-.61.22-1.19.47-1.75.72a6.19,6.19,0,0,0-1.48.94,2.8,2.8,0,0,0-.85,1.59l-.34.81a17.89,17.89,0,0,0-1.16,3c-.28,1-.54,2-.77,2.93v.86c-.23.57-.42,1.08-.57,1.52a3.63,3.63,0,0,0-.24,1.22,1.09,1.09,0,0,0,0,.44,1.43,1.43,0,0,0,.13.54,1.66,1.66,0,0,0,.25.45.42.42,0,0,0,.32.19,1.07,1.07,0,0,0,.71-.43c.3-.32.64-.66,1-1a7.62,7.62,0,0,1,1.28-1.05,2.41,2.41,0,0,1,1.52-.43,1.73,1.73,0,0,1,1.07.56,6,6,0,0,1,.87,1.13,8,8,0,0,1,.58,1.17,3.94,3.94,0,0,1,.21.69,3.74,3.74,0,0,1-.42,1.39q-.39.75-.84,1.47c-.3.49-.57.95-.81,1.39a3.12,3.12,0,0,0-.41,1.1,6.38,6.38,0,0,0,.2,1.38,8.86,8.86,0,0,0,.57,1.74,5.56,5.56,0,0,0,1,1.49,1.74,1.74,0,0,0,1.34.64.51.51,0,0,0,.45-.14,3.41,3.41,0,0,0,.37-.48c.11-.18.22-.39.34-.62a1.87,1.87,0,0,1,.38-.55,2,2,0,0,0,.77-.77.89.89,0,0,1,.77-.51h.39a.31.31,0,0,1,.23.25,1.84,1.84,0,0,1,.07.47,2.72,2.72,0,0,1,0,.49,1.82,1.82,0,0,0,0,.33,2.78,2.78,0,0,1-.3.85c-.2.43-.45.91-.75,1.45s-.63,1.11-1,1.69-.74,1.12-1.09,1.61-.65.81-1,1.19-.49.46-.64.43a2.33,2.33,0,0,1-1.58-.55,5.46,5.46,0,0,1-1.11-1.33,8.1,8.1,0,0,1-.79-1.62l-.58-1.5c-.08-.29-.21-.68-.38-1.18a11.07,11.07,0,0,0-.65-1.45,5.74,5.74,0,0,0-.92-1.26,1.86,1.86,0,0,0-1.26-.6.61.61,0,0,0-.51.3,2.55,2.55,0,0,0-.34.68,4.13,4.13,0,0,0-.19.77,1.4,1.4,0,0,1-.11.52v1.22a1.59,1.59,0,0,0,.55,1.58,5.56,5.56,0,0,0,1.46.68,4,4,0,0,1,1.3.67,1.73,1.73,0,0,1,.49,1.6.87.87,0,0,1-.19.54,1.81,1.81,0,0,1-1,.59,2,2,0,0,1-.41.07l-1-.3-1-.3h-1.19a2.88,2.88,0,0,1-1.16-.21l-.51-.26a1.1,1.1,0,0,0-.58.23,1,1,0,0,1-.58.24,5.48,5.48,0,0,0-.81,0,4.7,4.7,0,0,1-.92-.09,2.19,2.19,0,0,1-.75-.28.63.63,0,0,1-.25-.66,1.5,1.5,0,0,1,.49-1.18l1.11-1a5.74,5.74,0,0,0,1.13-1.37,4.57,4.57,0,0,0,.56-2.29,5.6,5.6,0,0,0,.06-1,5.61,5.61,0,0,1,.07-1,3.18,3.18,0,0,1,.06-.62,1.07,1.07,0,0,1,.41-.57l.13-4.5a8.86,8.86,0,0,1,.06-1.26,3.68,3.68,0,0,0,.06-.66c.14-.33.26-.66.37-1a4.19,4.19,0,0,0,.1-1V22.29c.06-.23.16-.54.3-.94a5.55,5.55,0,0,0,.3-1.2l.47-2.86a17.9,17.9,0,0,1,1.22-4.36l1.86-4.32.45-1a6.91,6.91,0,0,1,.69-1.17,5.2,5.2,0,0,1,.94-1.05,2.55,2.55,0,0,1,1.26-.6,1.56,1.56,0,0,0,.64-.13l.56-.21a3.32,3.32,0,0,1,.68-.34A1.79,1.79,0,0,1,183.27,3.94Zm-4.4,23.52a2.43,2.43,0,0,0-2,.68,3,3,0,0,0-.86,1.93v.51a2.14,2.14,0,0,0,.11.56.84.84,0,0,0,.32.42,1,1,0,0,0,.62.17,1.41,1.41,0,0,0,.88-.27,4.67,4.67,0,0,0,.9-.82,5.68,5.68,0,0,0,.68-1,2.38,2.38,0,0,0,.28-.94,1.21,1.21,0,0,0-.34-.84A.93.93,0,0,0,178.87,27.46Z"/><path class="cls-1" d="M199,21.9a3.42,3.42,0,0,1,1.51.32,2.73,2.73,0,0,1,1,.88,3.74,3.74,0,0,1,.55,1.28,5.3,5.3,0,0,1,.13,1.54,2.3,2.3,0,0,1-.85,1.86A11.76,11.76,0,0,1,199.55,29a12,12,0,0,1-1.73,1,15.76,15.76,0,0,0-1.71.94,5,5,0,0,0-1.32,1.2,3,3,0,0,0-.58,1.75v1.8a2.3,2.3,0,0,0,.3,1.43,1.12,1.12,0,0,0,1,.71.69.69,0,0,0,.34-.13l.67-.41c.25-.16.48-.32.72-.49l.54-.38c.43-.2.76-.37,1-.5a.62.62,0,0,1,.54-.1,1.51,1.51,0,0,1,.51.08c.14.06.21.27.21.64a3.26,3.26,0,0,1-.81,1.82A13.52,13.52,0,0,1,197.65,40a17.39,17.39,0,0,1-1.67,1.3,7.71,7.71,0,0,0-1.07.81,2.38,2.38,0,0,1-1.34.69H192.3a1.65,1.65,0,0,1-.79-.34,3.46,3.46,0,0,1-.72-.71,3.06,3.06,0,0,1-.5-.83,1.39,1.39,0,0,1-.08-.73v-.73a1.6,1.6,0,0,0-.17-.64l-.18-.3.13-.85V37a5,5,0,0,1,.09-.92c.09-.5.13-1,.21-1.62s.17-1.14.24-1.67.12-.87.15-1a.35.35,0,0,0,.17-.25,1.13,1.13,0,0,0,0-.26.86.86,0,0,1,0-.32.83.83,0,0,1,.17-.45,2.81,2.81,0,0,1,.22-1.07l.25-.6.6-1.41a3.63,3.63,0,0,1,.9-1.94,10.58,10.58,0,0,1,1.9-1.82,10.71,10.71,0,0,1,2.25-1.3A4,4,0,0,1,199,21.9ZM197,25.11c-.14,0-.28.1-.43.32s-.28.45-.42.7a9.05,9.05,0,0,0-.43,1,1.89,1.89,0,0,1-.13.49,3.18,3.18,0,0,0-.13.51.65.65,0,0,0,0,.39.36.36,0,0,0,.35.15,1.56,1.56,0,0,0,.64-.09,3.75,3.75,0,0,0,.87-.39,3.54,3.54,0,0,0,.82-.62,1.26,1.26,0,0,0,.4-.79v-.72a.61.61,0,0,0-.13-.39.86.86,0,0,0-.29-.25,1.75,1.75,0,0,0-.43-.22Z"/><path class="cls-1" d="M213.21,15.48H214a2.78,2.78,0,0,1,.69.12,1.2,1.2,0,0,1,.51.35,1,1,0,0,1,.19.66,2.34,2.34,0,0,1-.6,1l-1.3,1.54c-.47.56-.9,1.1-1.3,1.63a2.35,2.35,0,0,0-.6,1.21.64.64,0,0,0,.19.52,1.07,1.07,0,0,0,.45.23,2.35,2.35,0,0,0,.53.09h1.82a1.33,1.33,0,0,1,.26-.21.92.92,0,0,1,1.47.25,2.37,2.37,0,0,1,.28,1.16v1.15a.81.81,0,0,1-.51.73,4.25,4.25,0,0,1-1.14.38,6.83,6.83,0,0,1-1.19.17H213a1.79,1.79,0,0,1-.73-.07.68.68,0,0,0-.34-.06h-.85a1.61,1.61,0,0,0-.73.26c-.31.17-.47.37-.47.59s0,.56,0,.84a3.28,3.28,0,0,1-.09.62c0,.17-.06.38-.08.55a1.28,1.28,0,0,1-.26.47,1.71,1.71,0,0,0-.21.73v.47a7.08,7.08,0,0,1-.22,1.58,2.84,2.84,0,0,1-.38,1,1.9,1.9,0,0,0-.34.41,2.13,2.13,0,0,0-.13,1v.86a2.57,2.57,0,0,0,.08.62,2,2,0,0,0,.3.66,2.06,2.06,0,0,0,.51.51,1.22,1.22,0,0,0,.77.22,1.56,1.56,0,0,0,1-.3l.34-.3a.74.74,0,0,1,.53.19c.13.13.25.27.37.41a2.77,2.77,0,0,1,.29.6,2.3,2.3,0,0,1-.27.89,8.6,8.6,0,0,1-.67,1.09,6.56,6.56,0,0,1-.81,1,1.19,1.19,0,0,1-.73.4c-.19,0-.39.17-.57.49a1.68,1.68,0,0,0-.28.71,2.43,2.43,0,0,0-.47.08l-.68.18-.86.21a4.3,4.3,0,0,1-.88-.07.36.36,0,0,1-.32-.4h0a2.07,2.07,0,0,1-.38-.62c-.17-.36-.35-.75-.52-1.18s-.32-.85-.45-1.26a3.73,3.73,0,0,1-.19-.88V37a6.83,6.83,0,0,1,.11-.79c.07-.41.16-.87.26-1.37s.18-1,.25-1.49a9.88,9.88,0,0,0,.11-1.22v-.73c.23-.65.44-1.24.64-1.75s.29-.88.43-1.26a4,4,0,0,0,.21-.67V26.36c0-.37-.11-.6-.34-.69a2.83,2.83,0,0,1-.56-.42.65.65,0,0,1-.3-.56.94.94,0,0,1,.2-.53,4.41,4.41,0,0,1,.47-.58l.55-.62a3.92,3.92,0,0,0,.45-.62,1.64,1.64,0,0,1,.58-.79,6,6,0,0,0,.62-.41,5.82,5.82,0,0,1,1.2-1.07,4.21,4.21,0,0,0,1.2-1.32,6.36,6.36,0,0,0,.51-1.2,1.48,1.48,0,0,1,.77-.94,2.12,2.12,0,0,0,1-.66C212.81,15.65,213,15.48,213.21,15.48Z"/><path class="cls-1" d="M69,63.69v.82H67.39v1.21c0,3.49-3,4-4.47,4.22l-.32-.82c2.69-.26,3.94-1.35,3.94-3.44V64.51H63.21v2.56h-.86V64.51H60.74v-.82h1.61V61.93h.86v1.76h3.32v-1.8h.85v1.8Z"/><path class="cls-1" d="M74.52,64.62a11.79,11.79,0,0,0-2.92-1.37l.42-.76a12,12,0,0,1,3,1.33Zm-2.73,4.12C76.6,68.48,78,65.12,78.67,63l.74.55A8.18,8.18,0,0,1,72,69.69Z"/><path class="cls-1" d="M89.26,62.6v6.8h-7V62.6Zm-.87.82H83.11v5.17h5.28Z"/><path class="cls-1" d="M92.81,69.18a6.76,6.76,0,0,0,5.8-6h-3.4a8.24,8.24,0,0,1-2.49,2.6l-.54-.65a7.21,7.21,0,0,0,2.46-2.74h4.94c-.37,4.79-3.08,6.79-6.37,7.56Z"/><path class="cls-1" d="M108.21,62.84l1.1,1.25v5.2h-6.5v-.84h5.64V63.68H102.9v-.84Zm.49-1.26a8.45,8.45,0,0,1,1.19,1.65l-.59.45A8.13,8.13,0,0,0,108.15,62ZM110,61.1a8.42,8.42,0,0,1,1.17,1.66l-.6.45a7.74,7.74,0,0,0-1.13-1.7Z"/><path class="cls-1" d="M115.27,65.26a22.52,22.52,0,0,1,1.84,1.55,9.16,9.16,0,0,0,3.09-3.22h-6.82v-.83h8.11a9,9,0,0,1-3.79,4.61,19.25,19.25,0,0,1,1.58,1.79l-.73.6a19.84,19.84,0,0,0-3.9-3.92Z"/><path class="cls-1" d="M129.81,65.47v.9h-7v-.9Z"/><path class="cls-1" d="M133.11,69.18c2.44-.52,3.7-1.43,4-4.76H134.5a5.72,5.72,0,0,1-1.7,2.08l-.61-.62a5.79,5.79,0,0,0,2.23-4l.91.1a10.75,10.75,0,0,1-.49,1.65h5.47v.82H138c-.25,3-1.17,4.87-4.51,5.53Z"/><path class="cls-1" d="M143.59,66.79a8.51,8.51,0,0,0-.75-2.32l.71-.2a10.55,10.55,0,0,1,.81,2.33Zm0,2.56c2.94-.61,4.27-1.9,4.81-5.31l.83.17c-.63,3.25-1.84,5-5.11,5.78Zm2.14-3a11.16,11.16,0,0,0-.63-2.26l.7-.17a13.57,13.57,0,0,1,.68,2.25Z"/><path class="cls-1" d="M157.4,67.18a21.19,21.19,0,0,0-4.19-2V70h-.92V61.85h.92v2.43a26.3,26.3,0,0,1,4.64,2Z"/><path class="cls-1" d="M253.21,35.48a23.63,23.63,0,0,1,47.26,0h20a35.47,35.47,0,0,0-70.93,0Z"/><path class="cls-1" d="M276.81,13.63A21.87,21.87,0,0,0,255,35.48h3.19a12.26,12.26,0,0,1,24.52,0h16A21.89,21.89,0,0,0,276.81,13.63Z"/><path class="cls-1" d="M270.41,25a10.48,10.48,0,0,0-10.48,10.48h21A10.49,10.49,0,0,0,270.43,25Z"/><path class="cls-1" d="M235.74,41h3.57l4.28,13,4.34-13h3.56l-6.14,17.16h-3.49Z"/><path class="cls-1" d="M252.28,58.18h-3.75L255.48,41h3l6.82,17.14h-3.78l-1.25-3.36h-6.76Zm4.56-13.07-2.43,7h4.93Z"/><path class="cls-1" d="M282.21,52.41a8.59,8.59,0,0,1-8.39,6.07,8.9,8.9,0,1,1-.6-17.79h.6a8.75,8.75,0,0,1,8.41,6.17h-3.64a5.31,5.31,0,0,0-4.79-3.13,5.87,5.87,0,0,0,0,11.72,5.38,5.38,0,0,0,4.77-3Z"/><path class="cls-1" d="M286,58.18h-3.77l7-17.16h3L299,58.18h-3.79L294,54.82h-6.75Zm4.56-13.07-2.43,7H293Z"/><path class="cls-1" d="M296,41h3.57l4.28,13,4.33-13h3.57l-6.14,17.16h-3.5Z"/><path class="cls-1" d="M311.45,49.73a9,9,0,1,1,9.24,8.75h-.24a8.82,8.82,0,0,1-9-8.64Zm3.46-.14a5.55,5.55,0,1,0,5.56-5.86,5.64,5.64,0,0,0-5.57,5.69C314.9,49.48,314.91,49.53,314.91,49.59Z"/><path class="cls-1" d="M250.44,68.44h-1l1.92-4.74h.85l1.88,4.74H253l-.34-.93h-1.87Zm1.26-3.61L251,66.75h1.36Z"/><path class="cls-1" d="M258,68.44h-.77v-.5a1.32,1.32,0,0,1-1.21.61,1.87,1.87,0,0,1,0-3.73,1.4,1.4,0,0,1,1.18.56V63.7H258Zm-3-1.76a1,1,0,0,0,.91,1.08h.17a1.1,1.1,0,0,0,.78-.32,1.12,1.12,0,0,0,0-1.54,1,1,0,0,0-.76-.3,1,1,0,0,0-1.08.91.43.43,0,0,0,0,.16Z"/><path class="cls-1" d="M260.74,68.44h-.82l-1.3-3.52h.87l.84,2.46.85-2.46h.87Z"/><path class="cls-1" d="M263.05,67a1,1,0,0,0,1,.87.89.89,0,0,0,.84-.47h.87a2,2,0,0,1-.71.88,1.79,1.79,0,0,1-1,.31,1.87,1.87,0,0,1,0-3.73,1.8,1.8,0,0,1,1.31.53,2,2,0,0,1,.52,1.61Zm2-.64a1,1,0,0,0-2,0Z"/><path class="cls-1" d="M266.58,64.92h.79v.47a1,1,0,0,1,1-.57v.84h0a.77.77,0,0,0-.89.65,1,1,0,0,0,0,.24v1.89h-.84Z"/><path class="cls-1" d="M269.62,65.57H269v-.65h.58V63.7h.84v1.22h.6v.65h-.6v2.87h-.84Z"/><path class="cls-1" d="M271.68,63.7h.84v.75h-.84Zm0,1.22h.84v3.52h-.84Z"/><path class="cls-1" d="M274.93,65.87a.44.44,0,0,0-.49-.36.42.42,0,0,0-.36.36c0,.22.27.34.6.44.56.15,1.17.32,1.18,1.08a1.22,1.22,0,0,1-1.26,1.18h-.07a1.25,1.25,0,0,1-1.35-1.13H274a.48.48,0,0,0,.52.45.45.45,0,0,0,.48-.4h0c0-.3-.26-.38-.91-.61-.47-.14-.86-.41-.86-.91a1.27,1.27,0,0,1,2.51-.07Z"/><path class="cls-1" d="M276.55,63.7h.84v.75h-.84Zm0,1.22h.84v3.52h-.84Z"/><path class="cls-1" d="M278.21,64.92H279v.47a1.13,1.13,0,0,1,1.09-.57,1.31,1.31,0,0,1,1.38,1.23,2.44,2.44,0,0,1,0,.27v2.12h-.84V66.53c0-.52-.17-.93-.76-.93s-.81.41-.81.9v1.94h-.83Z"/><path class="cls-1" d="M285.93,68a2,2,0,0,1-.32,1.24A2,2,0,0,1,284,70a1.66,1.66,0,0,1-1.75-1.2h1a.7.7,0,0,0,.36.36.93.93,0,0,0,.46.12,1,1,0,0,0,1.05-1V68a1.24,1.24,0,0,1-1.14.63,1.87,1.87,0,0,1,0-3.73,1.3,1.3,0,0,1,1.14.58V65H286ZM283,66.68a1,1,0,0,0,.91,1.08H284a1,1,0,0,0,.75-.3,1.06,1.06,0,0,0,.31-.75,1.2,1.2,0,0,0-.26-.75,1.06,1.06,0,0,0-1.85.59.24.24,0,0,0,0,.12Z"/><path class="cls-1" d="M293.37,66.85a2.39,2.39,0,0,1-2.32,1.68,2.46,2.46,0,0,1,0-4.92,2.41,2.41,0,0,1,2.32,1.71h-1a1.5,1.5,0,0,0-1.33-.87,1.62,1.62,0,0,0,0,3.24,1.5,1.5,0,0,0,1.32-.84Z"/><path class="cls-1" d="M293.93,66.67a1.89,1.89,0,1,1,1.91,1.87h0a1.83,1.83,0,0,1-1.89-1.77Zm.84,0a1,1,0,1,0,0-.15A.38.38,0,0,0,294.77,66.67Z"/><path class="cls-1" d="M298.35,64.92h.79v.45a1.13,1.13,0,0,1,1-.55,1.19,1.19,0,0,1,.87.35l.21.32a1.59,1.59,0,0,1,.25-.33,1.34,1.34,0,0,1,.9-.34,1.31,1.31,0,0,1,.94.35c.32.33.38.62.38,1.34v1.93h-.84V66.55a1.25,1.25,0,0,0-.14-.66.57.57,0,0,0-.55-.29.66.66,0,0,0-.61.32,1,1,0,0,0-.12.59v1.93h-.84V66.51a1.28,1.28,0,0,0-.11-.58.63.63,0,0,0-.58-.33.66.66,0,0,0-.6.33,1.29,1.29,0,0,0-.13.61v1.9h-.84Z"/><path class="cls-1" d="M304.52,64.92h.79v.52a1.45,1.45,0,0,1,1.24-.62,1.87,1.87,0,0,1,0,3.73,1.35,1.35,0,0,1-1.2-.58v1.7h-.84Zm2.94,1.76a1.06,1.06,0,0,0-1-1.08h-.05a1.06,1.06,0,0,0-.77.32,1.12,1.12,0,0,0,0,1.54,1.08,1.08,0,0,0,1.83-.74v0Z"/><path class="cls-1" d="M312.71,68.44h-.84v-.5a1.3,1.3,0,0,1-1.19.61,1.87,1.87,0,0,1,0-3.73,1.31,1.31,0,0,1,1.19.62v-.52h.84Zm-3-1.74a1.05,1.05,0,0,0,1.05,1.07h0a1,1,0,0,0,.93-.56,1.78,1.78,0,0,0,.14-.5,1.16,1.16,0,0,0-.1-.49,1,1,0,0,0-1-.62,1,1,0,0,0-1.06,1v0Z"/><path class="cls-1" d="M313.54,64.92h.79v.47a1.14,1.14,0,0,1,1.1-.57,1.31,1.31,0,0,1,1.37,1.24,2.17,2.17,0,0,1,0,.26v2.12H316V66.53c0-.52-.17-.93-.76-.93s-.8.41-.8.9v1.94h-.84Z"/><path class="cls-1" d="M318.47,68.31l-1.32-3.39H318l.86,2.34.85-2.34h.89l-1.85,4.75h-.89Z"/></g></g></svg>